<svg width="512" height="512" viewBox="0 0 512 512" fill="none" xmlns="http://www.w3.org/2000/svg">
<g clip-path="url(#clip0_3_165)">
<rect width="512" height="512" fill="#D0C8CC"/>
<path d="M245.805 135.643C239.948 136.377 232.835 138.432 228.791 140.634C215.961 147.386 204.804 162.064 202.154 175.715C200.899 182.614 200.202 183.642 195.879 185.256C189.184 187.752 183.885 195.384 183.746 202.723C183.746 205.953 184.164 209.476 184.861 210.503C185.419 211.531 185.977 216.228 186.116 220.925C186.395 230.759 188.208 233.695 197.413 238.392C201.317 240.3 203.549 242.355 203.549 244.117C203.549 245.584 205.501 248.52 207.872 250.575C214.845 256.74 220.424 276.262 220.424 294.757C220.563 304.591 219.866 311.49 218.332 315.6C216.379 321.618 216.379 321.912 219.168 323.527C221.539 324.848 222.515 324.701 223.91 322.646C226.42 319.123 228.652 307.087 228.652 297.693C228.652 293.289 228.931 289.62 229.209 289.62C229.488 289.62 235.067 292.555 241.342 296.225C251.244 301.803 254.312 302.83 260.867 302.83C267.143 302.83 269.792 302.096 274.813 298.573C278.16 296.225 281.367 294.61 281.925 294.904C282.483 295.344 283.041 297.546 283.041 299.894C283.041 307.234 285.97 318.83 288.619 322.206C291.966 326.462 292.106 324.701 289.177 310.169C286.249 295.344 287.085 287.271 292.664 278.024C295.592 273.18 297.545 267.749 298.382 262.171C299.079 257.034 300.892 251.309 302.844 248.226C304.797 245.291 306.749 239.86 307.168 236.043C308.283 227.53 310.375 223.567 313.583 223.567C319.161 223.567 321.95 218.87 323.484 206.98C325.437 191.421 325.437 192.008 320.137 185.843C317.627 182.761 313.862 176.596 311.909 172.192C309.259 166.321 305.215 161.184 296.708 153.257C278.857 136.524 267.979 132.708 245.805 135.643ZM256.404 167.642C260.03 170.431 276.207 176.596 279.694 176.596C282.065 176.596 290.99 184.816 293.082 188.926C295.035 192.742 296.987 203.017 296.15 205.219C295.592 206.393 293.361 206.246 288.201 204.338C279.694 201.256 274.534 200.815 272.163 203.311C269.374 206.246 270.211 206.833 275.929 206.246C279.833 205.806 283.878 206.833 289.177 209.329C296.011 212.705 296.987 213.585 297.824 218.576C298.939 225.328 297.545 254.538 295.453 264.666C293.361 274.648 286.667 284.776 277.602 291.381C266.585 299.454 261.564 300.628 254.033 296.812C244.829 292.115 232.138 281.693 228.931 276.115C224.328 268.336 214.706 231.787 214.706 222.246C214.706 210.65 217.216 195.971 220.005 190.834C221.539 188.045 226.141 184.669 232.975 180.999C238.972 177.77 245.387 173.073 247.618 170.137C249.85 167.349 251.941 165 252.081 165C252.36 164.853 254.312 166.174 256.404 167.642ZM303.263 232.667C302.705 236.924 301.589 241.034 300.892 241.915C299.497 243.383 300.334 234.135 302.008 227.53C303.542 222.246 304.239 225.328 303.263 232.667ZM213.729 245.144C214.706 250.575 213.869 251.015 209.546 247.786C205.222 244.557 204.525 239.86 208.151 238.392C211.638 236.924 212.474 238.098 213.729 245.144Z" fill="#472C34"/>
<path d="M229.21 204.338C219.447 210.503 221.4 213.439 232.138 208.742C238.972 205.806 240.645 205.512 245.805 206.98C252.778 209.035 253.615 208.448 250.268 204.485C246.921 200.522 235.206 200.375 229.21 204.338Z" fill="#472C34"/>
<path d="M277.463 215.2C275.51 216.228 273.837 218.283 273.558 219.75C273.139 221.952 273.418 222.099 276.068 220.631C278.997 219.016 279.136 219.016 278.299 222.833C277.463 226.209 277.742 226.649 279.973 225.915C281.507 225.328 285.412 224.154 288.759 223.126L294.895 221.218L290.851 217.255C286.388 212.852 282.762 212.411 277.463 215.2Z" fill="#472C34"/>
<path d="M233.393 216.815C226.839 219.897 226.56 221.805 232.417 223.42C245.666 227.09 245.387 227.09 245.387 223.567C245.387 221.071 245.945 220.631 248.176 221.365C251.941 222.686 251.663 219.897 247.897 217.108C244.132 214.319 239.111 214.173 233.393 216.815Z" fill="#472C34"/>
<path d="M265.748 224.301C265.33 225.475 265.609 227.97 266.306 229.732C267.422 232.667 267.561 232.374 267.561 227.53C267.7 221.805 267.143 220.631 265.748 224.301Z" fill="#472C34"/>
<path d="M253.754 246.318C253.754 251.749 263.796 252.63 269.792 247.933C272.442 245.878 272.163 245.731 266.166 246.465C262.401 247.052 258.496 246.759 256.683 245.731C254.312 244.263 253.754 244.41 253.754 246.318Z" fill="#472C34"/>
<path d="M251.802 261.584C250.686 263.492 262.959 265.107 265.887 263.492C267.282 262.758 269.653 262.611 271.187 263.345C272.721 263.932 275.231 264.519 276.765 264.373C278.857 264.373 278.578 263.932 275.371 262.465C270.769 260.116 252.918 259.529 251.802 261.584Z" fill="#472C34"/>
<path d="M258.078 272.299C261.425 275.381 263.935 275.528 267.84 273.473C272.303 270.831 270.908 269.804 262.68 269.804C255.149 269.804 255.01 269.804 258.078 272.299Z" fill="#472C34"/>
<path d="M429.055 191.715C426.266 193.476 422.222 197.586 420.27 200.668C417.341 205.219 416.086 205.953 413.715 205.219C401.582 201.109 391.401 198.76 384.847 198.76C375.642 198.613 361.696 201.989 354.305 205.806C347.89 209.329 337.709 219.604 332.549 227.823C329.063 233.254 328.784 234.429 330.178 239.126C331.015 242.061 331.294 245.291 330.876 246.465C330.457 247.639 330.597 262.905 331.155 280.372L332.131 311.931L338.267 311.05C343.985 310.316 344.403 310.463 345.24 314.279C346.914 322.352 347.471 323.527 350.818 325.728C353.05 327.343 354.166 329.545 354.166 332.48C354.166 342.021 359.604 345.397 375.085 345.397H384.428L391.122 357.874C397.398 369.763 400.187 373.58 400.187 370.644C400.187 369.91 396.98 363.158 393.075 355.525C386.381 342.902 385.962 341.728 388.333 340.26C392.378 337.911 400.885 329.545 400.187 328.811C399.769 328.37 394.469 331.306 388.333 335.416C377.595 342.462 376.897 342.608 369.088 342.021C359.326 341.141 356.955 339.232 356.955 332.48C356.955 329.104 355.839 326.022 354.026 323.967C350.958 320.591 351.376 317.508 355.002 317.508C356.118 317.508 356.955 316.774 356.955 316.041C356.955 315.16 355.002 314.573 352.631 314.573C348.308 314.573 348.169 314.132 350.958 306.059C351.934 303.711 348.866 303.857 341.614 306.5C338.407 307.674 335.617 308.701 335.478 308.701C334.502 308.701 333.804 250.428 334.781 249.401C335.199 248.96 341.335 249.401 348.448 250.575C361.975 252.63 365.322 254.538 369.088 262.318C370.343 264.813 372.435 267.749 373.829 268.923C376.2 271.125 380.245 287.271 381.779 300.628C382.476 307.821 384.149 310.169 388.333 310.169C390.843 310.169 391.401 309.582 390.843 307.234C390.007 303.711 393.772 301.803 396.701 304.298C397.816 305.325 398.793 308.408 398.793 311.05C398.793 315.894 400.048 317.802 407.021 323.233C409.392 324.994 410.647 327.93 411.484 333.508C412.599 340.994 420.063 346.184 420.548 345.397C421.647 343.615 420.008 336.971 420.548 332.48C421.1 327.899 423.338 327.872 423.338 323.233C423.338 317.604 421.034 315.631 420.548 313.545C419.433 309.142 419.712 308.701 423.338 307.821C428.916 306.353 441.607 313.692 445.233 320.444C448.162 326.169 458.9 338.352 459.876 337.324C460.295 336.884 458.063 333.508 454.995 329.691C445.512 317.655 445.512 317.802 451.787 304.151C456.669 293.289 457.366 290.794 457.366 281.253C457.366 271.125 457.505 270.538 460.573 270.538C462.247 270.538 466.152 269.216 469.359 267.749C477.309 263.932 482.748 251.162 483.445 234.576C484.003 222.833 484.003 222.833 478.145 213.585C472.149 203.898 461.41 193.77 453.6 190.394C446.488 187.164 435.192 187.751 429.055 191.715ZM436.447 219.31C445.791 226.943 454.577 247.639 454.577 261.731C454.577 268.629 452.903 265.84 448.162 250.722C442.723 233.695 439.933 228.264 431.008 218.576C423.059 209.622 425.29 209.916 436.447 219.31Z" fill="#472C34"/>
<path d="M59.0684 192.742C49.0273 193.916 40.2413 199.641 34.2445 208.742C27.411 219.016 25.7375 238.539 30.6186 249.254C34.8024 258.208 44.5646 267.602 53.2111 270.684L60.6024 273.326L60.1841 280.812C59.7657 285.95 60.3235 289.326 61.8576 291.968C64.9257 296.665 71.0619 319.123 71.0619 324.994C71.0619 328.077 68.97 332.627 64.7862 338.939C57.9527 348.92 57.6738 349.801 60.3235 349.801C63.2522 349.801 70.9225 338.205 74.1301 328.958C76.3614 322.499 77.8955 320.151 80.4058 319.563C82.2187 318.976 85.4263 316.334 87.6577 313.545C91.1442 308.995 91.9809 308.555 94.6307 310.169C96.3042 311.05 99.3723 311.637 101.464 311.344C105.09 310.903 105.09 310.756 99.3723 307.527C92.5388 303.858 89.1917 299.307 89.1917 294.023C89.1917 289.326 91.5625 286.684 95.8858 286.684C101.604 286.684 104.532 289.326 104.532 294.463C104.532 297.105 104.157 301.803 105.412 304.298C106.667 306.94 108.749 309.375 108.834 312.813C108.882 314.76 106.56 317.207 107.465 317.604C108.263 317.954 111.023 317.132 113.179 315.894C115.829 314.426 117.084 308.706 113.626 301.176C112.257 296.665 114.295 294.17 117.084 293.289C118.757 292.702 120.71 290.5 121.546 288.445C122.523 286.243 125.033 282.427 127.264 279.785C130.332 276.409 131.169 274.207 130.751 271.418C130.053 267.602 130.053 267.602 139.258 267.602C152.228 267.455 158.922 264.079 162.827 255.272C167.847 244.117 170.636 246.759 172.728 264.666C173.565 271.418 174.262 285.95 174.262 296.665V316.187L171.194 315.16C169.381 314.72 166.313 313.252 164.221 312.224C159.48 309.582 158.922 309.729 158.922 312.371C158.922 313.692 160.456 315.453 162.408 316.334C167.15 318.536 166.731 321.325 161.432 324.26C156.969 326.756 156.83 326.756 160.177 328.077C163.245 329.251 163.384 329.545 161.293 331.893C159.898 333.508 159.061 336.737 159.201 339.966C159.34 342.902 158.643 346.278 157.667 347.452C153.483 352.737 132.564 351.415 120.989 345.251C114.713 341.875 114.155 341.875 115.271 344.81C115.689 346.131 119.455 348.773 123.638 350.682C127.683 352.59 131.03 354.938 131.03 355.819C131.03 356.7 128.798 361.984 126.149 367.708C123.359 373.433 121.407 378.424 121.825 378.717C122.802 379.745 128.101 371.085 131.866 362.424L135.353 354.204H145.673C158.503 354.204 161.711 351.856 163.245 341.581C163.803 337.618 165.476 331.013 166.871 326.756C169.102 320.151 169.939 319.123 173.565 318.683L177.749 318.242L178.167 303.564C178.446 295.491 177.888 281.106 177.051 271.565C175.517 255.859 175.517 253.657 177.749 248.52C180.12 243.089 180.12 242.502 177.888 238.979C173.704 232.374 170.078 231.64 159.201 235.163C146.231 239.273 97.4199 260.85 90.0285 265.694C86.9604 267.895 81.5214 271.712 78.1744 274.501C69.6673 281.253 66.3203 280.959 64.2284 273.033C62.6943 267.602 62.9733 265.253 66.1808 253.657C70.2252 238.832 81.8004 212.558 86.1236 208.448C89.1917 205.512 91.9809 206.1 91.9809 209.769C91.9809 212.411 85.2868 226.502 77.8955 239.713C71.7592 250.722 66.8781 268.189 69.3884 270.831C70.5041 272.005 72.7355 271.125 77.6166 267.895C87.7971 260.997 135.771 237.658 149.159 232.961C155.714 230.759 161.571 228.411 162.269 227.677C165.337 224.888 150.554 213.732 137.166 208.742C131.169 206.54 123.778 205.366 109.274 204.632L89.7496 203.751L84.0317 197.439C77.8955 190.687 77.0587 190.54 59.0684 192.742Z" fill="#472C34"/>
<path d="M341.196 263.345C337.43 265.694 339.801 267.602 344.264 265.694C347.471 264.519 349.842 264.813 356.536 267.308C366.02 270.978 367.275 271.125 365.88 268.923C362.812 263.639 346.635 259.969 341.196 263.345Z" fill="#472C34"/>
<path d="M148.741 271.272C140.234 274.354 140.792 275.381 150.554 274.207C155.575 273.62 161.292 273.18 163.384 273.327C166.313 273.473 167.01 273.033 166.453 271.272C165.337 268.483 156.132 268.483 148.741 271.272Z" fill="#472C34"/>
<path d="M346.635 273.18C346.216 273.914 347.472 276.262 349.284 278.757C352.632 283.014 352.771 283.014 353.608 279.638C354.584 276.262 357.513 275.235 359.047 277.877C360.162 279.785 362.533 279.785 362.533 277.877C362.533 274.207 348.448 270.097 346.635 273.18Z" fill="#472C34"/>
<path d="M158.224 279.198C153.483 280.519 144.976 284.922 144.976 286.097C144.976 286.537 146.928 286.537 149.159 285.95C151.809 285.363 154.32 285.656 155.575 286.831C157.388 288.445 158.224 288.005 161.014 284.335C164.5 279.932 165.337 277.73 163.524 278.024C162.827 278.17 160.595 278.611 158.224 279.198Z" fill="#472C34"/>
<path d="M351.487 286.289C352.044 286.729 355.978 285.216 356.536 284.776C356.955 284.188 356.536 283.748 355.56 283.748C354.952 283.748 353.356 284.507 352.342 285.221C351.73 285.653 351.329 286.068 351.487 286.289Z" fill="#472C34"/>
</g>
<defs>
<clipPath id="clip0_3_165">
<rect width="512" height="512" fill="white"/>
</clipPath>
</defs>
</svg>
