<svg xmlns="http://www.w3.org/2000/svg" viewBox="0 0 512 512">
  <rect width="512" height="512" rx="64" fill="#3b82f6"/>
  <rect x="64" y="96" width="384" height="352" rx="16" fill="white"/>
  <rect x="64" y="96" width="384" height="64" rx="16 16 0 0" fill="#1d4ed8"/>
  <circle cx="144" cy="128" r="16" fill="white"/>
  <circle cx="368" cy="128" r="16" fill="white"/>
  <rect x="96" y="192" width="64" height="48" rx="4" fill="#dbeafe"/>
  <rect x="176" y="192" width="64" height="48" rx="4" fill="#dbeafe"/>
  <rect x="256" y="192" width="64" height="48" rx="4" fill="#dbeafe"/>
  <rect x="336" y="192" width="64" height="48" rx="4" fill="#dbeafe"/>
  <rect x="96" y="256" width="64" height="48" rx="4" fill="#dbeafe"/>
  <rect x="176" y="256" width="64" height="48" rx="4" fill="#3b82f6"/>
  <rect x="256" y="256" width="64" height="48" rx="4" fill="#dbeafe"/>
  <rect x="336" y="256" width="64" height="48" rx="4" fill="#dbeafe"/>
  <rect x="96" y="320" width="64" height="48" rx="4" fill="#dbeafe"/>
  <rect x="176" y="320" width="64" height="48" rx="4" fill="#dbeafe"/>
  <rect x="256" y="320" width="64" height="48" rx="4" fill="#dbeafe"/>
  <rect x="336" y="320" width="64" height="48" rx="4" fill="#dbeafe"/>
  <rect x="96" y="384" width="64" height="48" rx="4" fill="#dbeafe"/>
  <rect x="176" y="384" width="64" height="48" rx="4" fill="#dbeafe"/>
  <rect x="256" y="384" width="64" height="48" rx="4" fill="#dbeafe"/>
  <rect x="336" y="384" width="64" height="48" rx="4" fill="#dbeafe"/>
</svg>
